<svg width="92" height="23" viewBox="0 0 92 23" fill="none" xmlns="http://www.w3.org/2000/svg">
<path d="M4.52246 22H0.523438V0.0712891H4.52246V7C5.00098 6.63867 5.49414 6.38477 6.00195 6.23828C6.50977 6.08203 7.02734 6.00391 7.55469 6.00391C8.52148 6.00391 9.42969 6.18945 10.2793 6.56055C11.1289 6.92188 11.8662 7.4248 12.4912 8.06934C13.126 8.7041 13.624 9.45117 13.9854 10.3105C14.3564 11.1602 14.542 12.0684 14.542 13.0352V22H10.5137V13.0352H10.543C10.543 12.625 10.4648 12.2393 10.3086 11.8779C10.1523 11.5068 9.9375 11.1846 9.66406 10.9111C9.39062 10.6377 9.07324 10.4229 8.71191 10.2666C8.35059 10.1104 7.96484 10.0322 7.55469 10.0322C7.13477 10.0322 6.73926 10.1104 6.36816 10.2666C5.99707 10.4229 5.6748 10.6377 5.40137 10.9111C5.12793 11.1846 4.91309 11.5068 4.75684 11.8779C4.60059 12.2393 4.52246 12.625 4.52246 13.0352V22ZM28.8096 20.1689C28.4873 20.4619 28.1406 20.7402 27.7695 21.0039C27.4082 21.2578 27.0273 21.4824 26.627 21.6777C26.2266 21.8633 25.8115 22.0098 25.3818 22.1172C24.9619 22.2344 24.5322 22.293 24.0928 22.293C23.126 22.293 22.2178 22.1221 21.3682 21.7803C20.5186 21.4385 19.7715 20.9551 19.127 20.3301C18.4922 19.6953 17.9893 18.9287 17.6182 18.0303C17.2568 17.1221 17.0762 16.1064 17.0762 14.9834V6.31152H21.0605V14.9834C21.0605 15.5107 21.1387 15.9844 21.2949 16.4043C21.4609 16.8145 21.6807 17.1611 21.9541 17.4443C22.2275 17.7275 22.5449 17.9424 22.9062 18.0889C23.2773 18.2354 23.6729 18.3086 24.0928 18.3086C24.5029 18.3086 24.8887 18.2158 25.25 18.0303C25.6211 17.835 25.9434 17.5811 26.2168 17.2686C26.4902 16.9561 26.7051 16.6045 26.8613 16.2139C27.0176 15.8135 27.0957 15.4033 27.0957 14.9834V6.31152H31.0947V22H30.1279L28.8096 20.1689ZM49.3174 22H48.3506L46.7979 19.8467C46.417 20.1885 46.0117 20.5107 45.582 20.8135C45.1621 21.1064 44.7178 21.3652 44.249 21.5898C43.7803 21.8047 43.2969 21.9756 42.7988 22.1025C42.3105 22.2295 41.8125 22.293 41.3047 22.293C40.2012 22.293 39.1611 22.0879 38.1846 21.6777C37.2178 21.2578 36.3682 20.6816 35.6357 19.9492C34.9131 19.207 34.3418 18.333 33.9219 17.3271C33.502 16.3115 33.292 15.208 33.292 14.0166C33.292 12.835 33.502 11.7363 33.9219 10.7207C34.3418 9.70508 34.9131 8.82617 35.6357 8.08398C36.3682 7.3418 37.2178 6.76074 38.1846 6.34082C39.1611 5.9209 40.2012 5.71094 41.3047 5.71094C41.6562 5.71094 42.0176 5.74023 42.3887 5.79883C42.7695 5.85742 43.1357 5.95508 43.4873 6.0918C43.8486 6.21875 44.1855 6.38965 44.498 6.60449C44.8105 6.81934 45.0742 7.08301 45.2891 7.39551V0.0712891H49.3174V22ZM45.2891 14.0166C45.2891 13.4697 45.1816 12.9424 44.9668 12.4346C44.7617 11.917 44.4785 11.4629 44.1172 11.0723C43.7559 10.6719 43.3311 10.3545 42.8428 10.1201C42.3643 9.87598 41.8516 9.75391 41.3047 9.75391C40.7578 9.75391 40.2402 9.85156 39.752 10.0469C39.2734 10.2422 38.8535 10.5254 38.4922 10.8965C38.1406 11.2578 37.8623 11.7021 37.6572 12.2295C37.4521 12.7568 37.3496 13.3525 37.3496 14.0166C37.3496 14.5928 37.4521 15.1396 37.6572 15.6572C37.8623 16.1748 38.1406 16.6289 38.4922 17.0195C38.8535 17.4102 39.2734 17.7178 39.752 17.9424C40.2402 18.167 40.7578 18.2793 41.3047 18.2793C41.8516 18.2793 42.3643 18.1621 42.8428 17.9277C43.3311 17.6836 43.7559 17.3662 44.1172 16.9756C44.4785 16.5752 44.7617 16.1211 44.9668 15.6133C45.1816 15.0957 45.2891 14.5635 45.2891 14.0166ZM67.54 22H66.5732L65.0205 19.8467C64.6396 20.1885 64.2344 20.5107 63.8047 20.8135C63.3848 21.1064 62.9404 21.3652 62.4717 21.5898C62.0029 21.8047 61.5195 21.9756 61.0215 22.1025C60.5332 22.2295 60.0352 22.293 59.5273 22.293C58.4238 22.293 57.3838 22.0879 56.4072 21.6777C55.4404 21.2578 54.5908 20.6816 53.8584 19.9492C53.1357 19.207 52.5645 18.333 52.1445 17.3271C51.7246 16.3115 51.5146 15.208 51.5146 14.0166C51.5146 12.835 51.7246 11.7363 52.1445 10.7207C52.5645 9.70508 53.1357 8.82617 53.8584 8.08398C54.5908 7.3418 55.4404 6.76074 56.4072 6.34082C57.3838 5.9209 58.4238 5.71094 59.5273 5.71094C59.8789 5.71094 60.2402 5.74023 60.6113 5.79883C60.9922 5.85742 61.3584 5.95508 61.71 6.0918C62.0713 6.21875 62.4082 6.38965 62.7207 6.60449C63.0332 6.81934 63.2969 7.08301 63.5117 7.39551V0.0712891H67.54V22ZM63.5117 14.0166C63.5117 13.4697 63.4043 12.9424 63.1895 12.4346C62.9844 11.917 62.7012 11.4629 62.3398 11.0723C61.9785 10.6719 61.5537 10.3545 61.0654 10.1201C60.5869 9.87598 60.0742 9.75391 59.5273 9.75391C58.9805 9.75391 58.4629 9.85156 57.9746 10.0469C57.4961 10.2422 57.0762 10.5254 56.7148 10.8965C56.3633 11.2578 56.085 11.7021 55.8799 12.2295C55.6748 12.7568 55.5723 13.3525 55.5723 14.0166C55.5723 14.5928 55.6748 15.1396 55.8799 15.6572C56.085 16.1748 56.3633 16.6289 56.7148 17.0195C57.0762 17.4102 57.4961 17.7178 57.9746 17.9424C58.4629 18.167 58.9805 18.2793 59.5273 18.2793C60.0742 18.2793 60.5869 18.1621 61.0654 17.9277C61.5537 17.6836 61.9785 17.3662 62.3398 16.9756C62.7012 16.5752 62.9844 16.1211 63.1895 15.6133C63.4043 15.0957 63.5117 14.5635 63.5117 14.0166ZM74.6299 22H70.6016V0.0712891H74.6299V22ZM83.9316 18.1621C84.0879 18.2109 84.2441 18.2451 84.4004 18.2646C84.5566 18.2744 84.7129 18.2793 84.8691 18.2793C85.2598 18.2793 85.6357 18.2256 85.9971 18.1182C86.3584 18.0107 86.6953 17.8594 87.0078 17.6641C87.3301 17.459 87.6133 17.2148 87.8574 16.9316C88.1113 16.6387 88.3164 16.3164 88.4727 15.9648L91.4023 18.9092C91.0312 19.4365 90.6016 19.9102 90.1133 20.3301C89.6348 20.75 89.1123 21.1064 88.5459 21.3994C87.9893 21.6924 87.3984 21.9121 86.7734 22.0586C86.1582 22.2148 85.5234 22.293 84.8691 22.293C83.7656 22.293 82.7256 22.0879 81.749 21.6777C80.7822 21.2676 79.9326 20.6963 79.2002 19.9639C78.4775 19.2314 77.9062 18.3623 77.4863 17.3564C77.0664 16.3408 76.8564 15.2275 76.8564 14.0166C76.8564 12.7764 77.0664 11.6436 77.4863 10.6182C77.9062 9.59277 78.4775 8.71875 79.2002 7.99609C79.9326 7.27344 80.7822 6.71191 81.749 6.31152C82.7256 5.91113 83.7656 5.71094 84.8691 5.71094C85.5234 5.71094 86.1631 5.78906 86.7881 5.94531C87.4131 6.10156 88.0039 6.32617 88.5605 6.61914C89.127 6.91211 89.6543 7.27344 90.1426 7.70312C90.6309 8.12305 91.0605 8.59668 91.4316 9.12402L83.9316 18.1621ZM85.9824 9.91504C85.7969 9.84668 85.6113 9.80273 85.4258 9.7832C85.25 9.76367 85.0645 9.75391 84.8691 9.75391C84.3223 9.75391 83.8047 9.85645 83.3164 10.0615C82.8379 10.2568 82.418 10.54 82.0566 10.9111C81.7051 11.2822 81.4268 11.7314 81.2217 12.2588C81.0166 12.7764 80.9141 13.3623 80.9141 14.0166C80.9141 14.1631 80.9189 14.3291 80.9287 14.5146C80.9482 14.7002 80.9727 14.8906 81.002 15.0859C81.041 15.2715 81.085 15.4521 81.1338 15.6279C81.1826 15.8037 81.2461 15.96 81.3242 16.0967L85.9824 9.91504Z" fill="#F2CD08"/>
</svg>
